<?xml version="1.0" standalone="no"?>
<!DOCTYPE svg PUBLIC "-//W3C//DTD SVG 20010904//EN"
 "http://www.w3.org/TR/2001/REC-SVG-20010904/DTD/svg10.dtd">
<svg version="1.0" xmlns="http://www.w3.org/2000/svg"
 width="54" height="44" viewBox="0 0 3072.000000 2124.000000"
 preserveAspectRatio="xMidYMid meet">

<g transform="translate(0.000000,2124.000000) scale(0.100000,-0.100000)"
fill="#0000FF" stroke="none">
<path d="M4940 18255 c0 -14 52 -156 86 -233 8 -18 14 -38 14 -45 0 -6 10 -36
21 -67 12 -30 27 -71 35 -90 7 -19 37 -98 67 -175 30 -77 63 -162 72 -190 10
-27 24 -64 31 -82 8 -17 14 -37 14 -45 0 -8 4 -18 8 -23 5 -6 19 -41 32 -80
12 -38 56 -160 97 -270 42 -110 90 -240 108 -290 41 -114 143 -391 204 -560
104 -283 324 -876 366 -985 54 -141 186 -503 213 -585 10 -33 45 -125 76 -205
83 -211 81 -205 126 -335 23 -66 57 -159 76 -207 19 -49 34 -92 34 -96 0 -5
12 -37 26 -73 34 -84 128 -333 164 -434 16 -44 45 -125 65 -180 20 -55 54
-147 74 -205 33 -91 62 -166 126 -330 7 -19 32 -89 55 -155 23 -66 52 -147 65
-180 13 -33 30 -78 38 -100 8 -22 63 -170 122 -330 59 -159 128 -351 155 -425
26 -74 79 -218 118 -320 38 -102 85 -233 103 -292 19 -64 38 -108 46 -108 14
0 48 18 253 135 355 203 835 443 1410 703 25 11 90 39 145 62 55 23 120 51
143 62 24 11 78 33 120 50 43 16 93 37 112 45 19 8 45 19 58 24 12 5 32 13 45
18 59 24 239 92 294 112 35 12 68 28 75 36 12 15 1 50 -86 288 -40 107 -105
288 -191 530 -29 83 -70 195 -90 250 -20 55 -40 111 -45 125 -5 14 -22 62 -39
108 -17 46 -37 102 -45 125 -8 23 -36 101 -61 172 -26 72 -59 169 -75 216 -16
47 -33 97 -39 110 -16 38 -135 370 -184 514 -40 115 -97 276 -159 445 -26 71
-101 280 -193 540 -40 113 -108 302 -150 420 -42 118 -81 229 -87 245 -17 50
-63 179 -154 430 -48 132 -113 314 -144 405 -58 164 -126 358 -215 605 -73
202 -85 237 -100 280 -7 22 -46 130 -85 240 -40 110 -88 248 -108 308 l-36
107 -1603 0 c-1415 0 -1603 -2 -1603 -15z"/>
<path d="M15243 18262 c-11 -7 -30 -46 -108 -217 -42 -93 -74 -163 -116 -253
-22 -46 -39 -85 -39 -87 0 -6 -60 -137 -105 -230 -19 -38 -55 -115 -81 -170
-45 -97 -62 -134 -109 -240 -12 -27 -44 -95 -70 -150 -93 -195 -114 -241 -150
-320 -20 -44 -43 -96 -52 -115 -16 -37 -27 -62 -96 -210 -25 -52 -57 -122 -72
-155 -16 -33 -50 -107 -77 -165 -27 -58 -55 -118 -62 -135 -8 -16 -29 -64 -48
-105 -19 -41 -44 -95 -55 -120 -12 -25 -41 -88 -66 -140 -25 -52 -57 -122 -72
-155 -15 -33 -47 -101 -71 -151 -24 -50 -44 -94 -44 -97 0 -4 -32 -74 -71
-155 -39 -81 -80 -165 -89 -187 -10 -22 -37 -79 -59 -127 -96 -206 -125 -267
-156 -333 -18 -38 -43 -92 -55 -120 -19 -42 -66 -143 -135 -290 -8 -16 -19
-41 -25 -55 -5 -14 -14 -32 -19 -40 -17 -28 -81 -169 -81 -178 0 -6 -15 -41
-34 -78 -18 -38 -37 -79 -40 -91 -4 -13 -12 -23 -17 -23 -5 0 -9 -7 -9 -16 0
-9 -6 -28 -14 -42 -8 -15 -31 -63 -51 -107 -20 -44 -57 -120 -80 -170 -115
-239 -165 -348 -165 -356 0 -5 -9 -26 -20 -46 -27 -51 -27 -76 1 -68 12 4 49
15 83 25 33 10 106 32 161 49 55 18 136 43 180 57 44 13 134 42 200 63 66 22
163 51 215 65 153 41 228 62 345 95 61 17 137 38 170 47 33 9 71 20 85 25 14
5 59 18 100 28 41 11 102 27 135 36 124 34 281 77 315 85 19 5 62 16 95 25 33
9 76 20 95 25 19 4 80 20 135 34 259 70 1036 264 1245 312 36 8 81 19 100 24
30 8 142 34 308 71 59 13 111 25 232 53 58 13 119 27 135 30 17 3 62 13 100
21 39 9 88 20 110 25 22 4 81 17 130 28 50 11 107 23 129 27 36 6 38 8 32 36
-3 16 -38 96 -77 177 -39 81 -83 172 -96 202 -14 30 -33 73 -43 95 -40 85 -90
197 -90 200 0 2 -25 57 -56 122 -58 124 -73 155 -124 268 -18 39 -53 113 -77
165 -54 115 -74 157 -151 325 -33 72 -80 173 -105 225 -98 207 -147 312 -147
316 0 4 -54 121 -110 239 -47 98 -90 191 -187 405 -41 91 -94 206 -118 255
-61 127 -125 266 -125 272 0 6 -20 50 -87 191 -29 62 -53 114 -53 117 0 2 -22
51 -50 109 -27 58 -50 108 -50 110 0 2 -23 53 -51 113 -28 59 -59 126 -69 148
-10 22 -36 78 -58 125 -22 47 -54 116 -71 155 -18 38 -37 73 -44 77 -16 10
-168 10 -184 0z"/>
<path d="M22605 18263 c-17 -3 -31 -33 -72 -151 -28 -81 -69 -199 -92 -262
-23 -63 -55 -153 -71 -200 -16 -47 -41 -116 -55 -155 -14 -38 -30 -81 -35 -95
-5 -14 -25 -70 -45 -125 -21 -55 -44 -118 -52 -140 -7 -22 -20 -53 -27 -70 -8
-16 -31 -82 -52 -145 -20 -63 -40 -119 -45 -125 -4 -5 -12 -26 -17 -45 -6 -19
-20 -60 -32 -90 -12 -30 -28 -75 -35 -100 -15 -50 -63 -179 -105 -285 -16 -38
-41 -106 -56 -150 -33 -97 -48 -139 -114 -325 -29 -80 -59 -163 -66 -185 -8
-22 -19 -49 -24 -60 -5 -11 -21 -56 -36 -100 -15 -44 -44 -127 -65 -185 -20
-58 -51 -145 -69 -195 -18 -49 -36 -94 -41 -100 -5 -5 -9 -15 -9 -23 0 -8 -6
-28 -14 -45 -8 -18 -19 -45 -24 -62 -6 -16 -29 -81 -51 -143 -35 -98 -38 -114
-24 -119 22 -9 275 31 418 66 62 15 237 46 405 72 36 5 88 14 115 19 139 26
297 52 480 80 72 11 180 29 240 41 61 11 164 29 230 39 66 11 143 24 170 30
28 5 100 16 160 25 61 9 137 20 170 26 33 5 123 19 200 30 77 12 165 25 195
30 30 5 84 13 120 18 309 42 386 56 417 76 27 18 53 66 95 178 17 45 43 116
59 157 41 109 95 253 130 345 30 77 64 168 79 210 4 11 17 45 30 75 21 53 48
125 109 295 35 96 98 266 117 315 17 45 49 131 113 305 85 228 150 398 180
470 16 38 89 230 121 320 34 95 42 117 86 230 52 134 82 224 76 229 -6 7
-3156 6 -3187 -1z"/>
<path d="M29710 15699 c-25 -5 -94 -18 -155 -30 -60 -11 -148 -29 -195 -39
-47 -10 -132 -28 -190 -40 -113 -23 -353 -76 -515 -115 -55 -13 -124 -28 -152
-34 -29 -6 -74 -16 -100 -21 -27 -6 -115 -24 -198 -41 -133 -26 -200 -39 -415
-80 -30 -6 -71 -15 -90 -19 -19 -5 -88 -21 -152 -35 -255 -55 -355 -76 -393
-85 -22 -5 -62 -14 -90 -20 -27 -5 -97 -21 -155 -35 -126 -29 -290 -65 -345
-75 -37 -7 -247 -52 -325 -70 -19 -5 -71 -15 -115 -24 -44 -9 -107 -23 -140
-31 -33 -8 -112 -26 -175 -40 -63 -14 -133 -30 -155 -35 -22 -5 -92 -21 -155
-35 -63 -14 -133 -30 -155 -35 -22 -5 -89 -21 -150 -35 -60 -14 -128 -30 -150
-35 -64 -14 -165 -38 -235 -56 -114 -28 -273 -64 -327 -74 -29 -5 -90 -18
-135 -30 -130 -33 -149 -37 -223 -54 -145 -31 -381 -87 -411 -96 -17 -6 -42
-10 -56 -10 -14 0 -38 -4 -54 -9 -16 -5 -81 -21 -144 -36 -132 -29 -136 -31
-365 -85 -191 -45 -213 -51 -340 -80 -157 -36 -216 -51 -365 -86 -80 -20 -192
-47 -250 -60 -58 -14 -121 -29 -140 -34 -19 -6 -129 -32 -245 -60 -115 -28
-223 -54 -240 -59 -16 -5 -79 -20 -140 -35 -124 -29 -599 -144 -630 -152 -11
-3 -60 -17 -110 -30 -49 -14 -108 -29 -130 -34 -22 -5 -83 -20 -135 -34 -215
-55 -414 -107 -560 -145 -85 -22 -227 -60 -315 -84 -159 -45 -344 -94 -525
-141 -52 -13 -131 -34 -175 -46 -44 -12 -111 -30 -150 -40 -38 -10 -115 -32
-170 -48 -55 -16 -201 -58 -325 -92 -124 -35 -342 -97 -485 -138 -143 -41
-269 -76 -280 -79 -21 -6 -94 -27 -415 -123 -433 -129 -578 -172 -630 -190
-30 -10 -109 -35 -175 -55 -66 -21 -174 -54 -240 -75 -66 -21 -174 -55 -240
-75 -143 -43 -1087 -352 -1230 -402 -55 -19 -154 -54 -220 -78 -66 -23 -145
-50 -175 -60 -30 -10 -64 -22 -75 -26 -11 -5 -78 -29 -150 -53 -71 -24 -260
-92 -420 -151 -159 -59 -330 -122 -380 -140 -90 -33 -182 -68 -220 -84 -11 -5
-38 -16 -60 -24 -92 -36 -287 -112 -380 -150 -125 -49 -569 -234 -610 -252
-16 -8 -109 -48 -205 -88 -96 -41 -213 -93 -260 -115 -106 -50 -220 -102 -225
-102 -2 0 -59 -26 -127 -59 -68 -32 -154 -73 -193 -91 -134 -63 -641 -318
-753 -379 -62 -33 -115 -61 -117 -61 -2 0 -28 -14 -57 -31 -29 -18 -127 -73
-218 -124 -302 -169 -473 -273 -745 -453 -172 -114 -453 -308 -465 -322 -3 -3
-52 -41 -110 -85 -139 -105 -339 -268 -404 -330 -29 -27 -102 -95 -162 -150
-60 -55 -121 -113 -137 -129 -15 -17 -53 -57 -85 -91 -155 -162 -352 -408
-471 -588 -39 -60 -71 -111 -71 -114 0 -4 -6 -14 -14 -22 -14 -16 -150 -281
-173 -337 -6 -16 -19 -47 -28 -69 -15 -36 -75 -214 -109 -325 -8 -25 -17 -70
-21 -100 -3 -30 -13 -89 -22 -130 -24 -109 -24 -534 -1 -640 9 -41 19 -102 23
-135 6 -58 24 -134 50 -205 7 -19 27 -80 44 -135 35 -109 169 -422 211 -495
14 -25 29 -52 33 -60 26 -56 159 -269 228 -365 16 -22 49 -69 74 -105 24 -36
59 -82 77 -102 18 -20 40 -46 48 -59 103 -150 431 -498 755 -800 44 -41 87
-81 95 -89 54 -52 406 -349 540 -456 311 -249 500 -388 500 -368 0 4 -57 66
-128 138 -246 253 -444 510 -563 731 -49 90 -69 133 -117 245 -8 19 -21 48
-28 63 -8 16 -14 34 -14 40 0 7 -8 41 -19 77 -26 87 -47 183 -67 310 -19 126
-22 442 -4 510 6 24 18 80 25 124 16 102 41 210 53 233 5 10 12 35 16 57 4 21
13 52 21 70 7 17 20 47 29 68 9 20 16 40 16 44 0 10 93 209 158 339 42 84 188
334 202 345 4 3 24 32 46 65 83 125 199 281 230 310 5 6 30 35 55 65 44 55 57
70 159 184 29 32 64 72 79 89 62 73 184 199 296 306 66 63 129 123 141 135 12
12 36 34 55 50 19 16 75 66 124 110 50 45 119 106 155 136 36 30 74 64 85 75
21 22 197 165 354 287 47 37 120 94 161 127 108 85 487 356 685 489 94 63 211
143 260 177 50 34 106 70 125 80 19 10 80 47 135 83 142 93 221 143 295 189
36 22 106 65 155 95 50 30 122 72 160 93 39 21 93 53 120 70 70 44 221 132
345 200 58 32 141 78 185 103 44 25 109 61 145 80 36 19 108 58 160 87 95 52
162 89 275 150 33 18 130 68 215 113 85 44 218 112 295 152 77 40 208 107 290
147 83 41 299 148 480 238 412 205 802 395 808 395 2 0 60 26 128 59 209 99
316 148 634 291 11 5 76 34 145 66 69 31 139 62 155 69 17 7 75 33 130 58 55
25 161 71 235 102 74 31 200 86 279 122 80 36 179 78 220 95 65 25 164 67 236
98 145 63 197 85 295 125 63 26 129 53 145 60 17 8 127 53 245 100 118 47 251
101 295 120 152 64 400 163 550 220 150 56 229 87 425 165 58 23 164 64 237
91 73 26 208 78 300 114 92 37 191 75 218 85 114 43 323 119 366 133 68 23
289 106 329 124 19 8 46 19 60 23 14 5 77 27 140 50 63 23 140 50 170 60 83
28 200 71 350 128 174 65 380 139 605 217 99 35 221 77 270 95 50 18 119 43
155 56 112 39 923 315 955 324 17 5 71 22 120 39 50 16 164 53 255 81 91 29
284 90 430 137 146 47 279 89 295 94 17 5 113 36 215 68 102 33 239 76 305 96
66 20 131 40 145 45 90 30 530 165 620 190 19 5 107 32 195 59 88 27 194 58
235 70 86 25 226 67 285 86 72 23 212 64 325 95 25 7 56 16 70 20 14 5 52 16
85 25 33 9 103 31 155 49 52 19 158 50 235 71 126 33 259 70 340 95 17 5 77
21 135 35 58 14 120 31 139 37 19 6 66 19 105 29 39 10 130 33 201 53 72 19
200 53 285 75 237 62 388 106 396 114 9 8 4 8 -56 -4z"/>
<path d="M27605 13714 c-77 -18 -183 -44 -235 -58 -52 -14 -124 -32 -160 -40
-36 -8 -157 -38 -270 -66 -113 -28 -223 -55 -245 -60 -22 -5 -85 -20 -140 -35
-55 -14 -143 -37 -195 -50 -52 -14 -129 -34 -170 -45 -78 -22 -240 -65 -465
-124 -350 -92 -488 -128 -565 -150 -25 -7 -90 -25 -145 -40 -55 -15 -152 -42
-215 -61 -63 -19 -149 -43 -190 -54 -41 -10 -120 -32 -175 -49 -55 -16 -122
-35 -150 -42 -54 -13 -182 -51 -280 -81 -33 -10 -82 -25 -110 -32 -61 -17
-686 -201 -770 -227 -656 -204 -820 -256 -1315 -420 -369 -122 -580 -194 -720
-245 -36 -13 -141 -51 -235 -85 -93 -34 -192 -70 -220 -81 -27 -10 -106 -39
-175 -63 -69 -24 -147 -53 -175 -65 -27 -11 -180 -71 -340 -132 -159 -60 -380
-149 -489 -195 -110 -47 -220 -94 -245 -104 -47 -18 -328 -145 -461 -207 -199
-93 -436 -207 -445 -213 -5 -4 -57 -31 -115 -60 -216 -110 -425 -236 -522
-316 -83 -69 -163 -139 -205 -180 -48 -48 -181 -201 -203 -234 -8 -12 -23 -32
-32 -45 -22 -29 -118 -195 -118 -203 0 -4 -15 -38 -34 -77 -32 -66 -89 -238
-117 -350 -12 -50 -20 -108 -38 -265 -21 -188 10 -475 76 -715 14 -49 30 -108
35 -130 6 -22 16 -54 24 -72 8 -17 14 -34 14 -38 0 -4 6 -21 14 -38 8 -18 33
-76 55 -129 23 -53 64 -145 91 -203 28 -58 50 -108 50 -111 0 -2 34 -75 76
-162 42 -86 91 -191 109 -232 39 -91 77 -172 163 -350 35 -74 80 -169 99 -210
19 -41 48 -103 64 -138 16 -34 29 -64 29 -67 0 -6 36 -85 127 -275 56 -116
126 -267 203 -435 68 -149 94 -205 161 -341 38 -78 69 -144 69 -148 0 -3 19
-45 41 -93 23 -49 57 -122 76 -163 20 -41 62 -130 94 -197 32 -67 59 -124 59
-126 0 -3 23 -53 50 -112 28 -59 50 -108 50 -110 0 -4 56 -126 115 -250 49
-102 95 -201 193 -415 13 -30 48 -104 77 -165 57 -119 103 -218 142 -305 13
-30 33 -73 44 -96 10 -23 19 -44 19 -47 0 -4 35 -80 79 -169 67 -140 111 -236
176 -385 l15 -33 142 0 c79 0 149 4 156 9 14 8 76 148 92 206 14 48 46 136 70
190 12 28 45 111 72 185 28 74 57 151 64 170 19 50 84 228 100 275 8 22 19 49
24 60 17 36 120 305 120 314 0 5 12 35 26 67 14 33 32 77 39 99 7 22 23 65 34
95 12 30 30 80 41 110 10 30 40 107 66 170 25 63 54 138 64 165 10 28 26 68
36 90 9 22 33 83 52 135 19 52 40 111 48 130 7 19 29 78 48 130 19 52 48 129
65 170 16 41 42 105 56 143 14 37 37 97 51 135 14 37 31 83 39 102 12 32 55
148 107 290 43 118 117 307 134 344 8 16 14 34 14 40 1 6 9 29 20 51 11 22 19
46 20 53 0 7 16 52 35 100 19 48 50 130 70 182 20 52 49 127 64 165 16 39 38
97 50 130 25 66 33 86 84 220 19 50 53 140 75 200 38 101 84 221 134 350 11
28 33 86 49 130 16 44 33 89 38 100 4 11 18 47 30 80 12 33 29 75 37 93 8 18
14 37 14 43 0 6 15 47 34 92 30 73 44 109 91 237 8 19 29 75 49 123 20 49 36
93 36 99 0 5 6 24 14 41 7 18 23 59 35 92 38 100 86 226 167 430 26 66 50 131
55 145 4 14 26 72 49 130 23 58 56 146 75 195 75 207 97 264 126 335 33 79 44
109 79 205 12 33 28 74 35 90 8 17 25 64 39 105 13 41 39 111 57 155 17 44 40
103 51 130 10 28 23 59 27 70 5 11 18 45 29 75 70 189 86 233 112 305 58 159
76 198 95 209 11 6 32 19 47 29 14 9 89 49 165 88 76 40 203 105 283 147 80
41 321 163 535 272 215 108 534 270 710 359 878 447 1069 544 1555 790 578
292 720 363 950 474 85 42 164 83 175 91 l20 15 -20 0 c-11 -1 -83 -16 -160
-35z"/>
<path d="M14089 9247 c-94 -49 -360 -192 -514 -277 -201 -111 -562 -324 -699
-412 -33 -21 -63 -38 -68 -38 -6 0 -28 -13 -51 -29 -23 -15 -112 -73 -197
-127 -85 -54 -195 -128 -245 -164 -49 -36 -108 -77 -130 -90 -36 -22 -161
-112 -299 -215 -30 -22 -87 -65 -129 -95 -71 -53 -128 -97 -387 -309 -352
-286 -851 -801 -1072 -1105 -21 -28 -59 -82 -85 -121 -26 -38 -58 -83 -72
-100 -13 -16 -30 -43 -38 -60 -7 -16 -31 -57 -53 -90 -22 -33 -45 -71 -51 -85
-6 -14 -29 -59 -52 -100 -44 -80 -45 -80 -101 -235 -48 -130 -73 -210 -81
-260 -4 -22 -13 -62 -21 -90 -21 -79 -44 -244 -44 -320 0 -103 19 -155 156
-442 24 -50 44 -94 44 -97 0 -3 18 -45 41 -93 23 -49 52 -113 66 -143 14 -30
41 -88 59 -128 19 -40 34 -76 34 -80 0 -4 6 -18 13 -32 12 -23 119 -259 154
-340 26 -60 58 -132 133 -295 28 -62 55 -122 98 -220 22 -49 51 -116 66 -147
14 -31 26 -59 26 -62 0 -3 16 -41 36 -83 61 -130 64 -136 88 -203 20 -55 28
-66 52 -71 39 -9 223 -9 253 0 26 7 28 11 59 81 68 154 161 360 204 450 27 58
58 123 68 145 54 120 215 463 254 542 20 40 36 75 36 78 0 3 23 54 51 113 27
59 64 136 81 172 17 36 48 101 69 145 54 115 109 234 109 239 0 2 35 78 79
168 89 184 135 282 228 483 128 275 183 392 256 545 60 127 127 270 127 274 0
2 32 70 71 152 106 221 155 324 174 369 43 98 178 384 330 700 35 72 74 158
89 192 14 34 51 115 82 180 73 155 148 319 165 362 8 19 51 110 97 203 45 92
82 170 82 173 0 3 25 56 55 119 30 62 55 116 55 121 0 7 122 260 217 450 41
80 163 345 163 352 0 12 -42 -5 -131 -50z"/>
</g>
</svg>
